<svg width="150" height="150" viewBox="0 0 150 150" fill="none" xmlns="http://www.w3.org/2000/svg">
<circle cx="75" cy="75" r="75" fill="#FEE930"/>
<path d="M64.08 64.56C64.16 67.12 65.28 68.4 67.28 68.4C69.28 68.4 70.16 67.04 70.16 64.8C70.16 60.72 66.72 54.56 59.76 54.56C50.88 54.56 45.12 63.76 45.12 77.92C45.12 90.48 50 99.6 59.04 99.6C66 99.6 70.4 93.52 71.68 81.6H70C67.92 92.08 64.96 95.76 60.56 95.76C54 95.76 50.08 88.24 50.08 76.72C50.08 64.8 53.2 57.28 59.44 57.28C62.88 57.28 64 60.64 64.08 64.56ZM98.1081 63.6L90.4281 90.4H90.1881L82.5081 63.6C81.1481 58.8 80.9881 57.92 85.9481 57.92V56.16H71.6281V57.92C74.9081 57.92 76.0281 58.8 77.3881 63.52L87.8681 99.84H90.5081L100.828 63.6C102.188 58.8 103.308 57.92 106.588 57.92V56.16H94.1081V57.92C99.4681 57.92 99.4681 58.8 98.1081 63.6Z" fill="black"/>
</svg>
