<svg width="374" height="91" viewBox="0 0 374 91" fill="none" xmlns="http://www.w3.org/2000/svg">
<path d="M-11.8797 88.115L-11.6071 87.1529L-11.6071 87.1529L-11.8797 88.115ZM-23.7247 82.48L-24.3217 83.2822L-24.3217 83.2822L-23.7247 82.48ZM-31.4297 73.395L-32.3315 73.8271L-32.326 73.8385L-32.3203 73.8498L-31.4297 73.395ZM-34.3047 60.975V59.975H-35.3386L-35.3041 61.0083L-34.3047 60.975ZM-14.5247 60.975L-13.5312 60.861L-13.6329 59.975H-14.5247V60.975ZM-9.23469 71.21L-9.81793 72.0224L-9.80815 72.0292L-9.23469 71.21ZM9.16532 73.855L9.37775 74.8322L9.37775 74.8322L9.16532 73.855ZM13.8803 72.13L14.366 73.0042L14.3841 72.9941L14.4018 72.9833L13.8803 72.13ZM17.1003 69.025L16.2607 68.4817L16.2565 68.4883L16.2523 68.495L17.1003 69.025ZM16.9853 59.825L16.1613 60.3915L16.1729 60.4085L16.1853 60.425L16.9853 59.825ZM13.1903 56.72L13.6375 55.8256L13.6375 55.8256L13.1903 56.72ZM6.98031 54.535L6.70957 55.4976L6.72362 55.5016L6.73778 55.5051L6.98031 54.535ZM-1.29969 52.465L-1.08017 51.4894L-1.08276 51.4888L-1.29969 52.465ZM-13.0297 49.36L-12.7314 48.4055L-12.7314 48.4055L-13.0297 49.36ZM-22.6897 44.875L-23.2601 45.6964L-23.2523 45.7018L-23.2444 45.707L-22.6897 44.875ZM-29.2447 37.745L-30.1296 38.2107L-30.1222 38.2248L-30.1144 38.2386L-29.2447 37.745ZM-21.9997 7.27L-21.4305 8.09219L-21.4234 8.08732L-21.4165 8.08232L-21.9997 7.27ZM-11.4197 2.555L-11.1815 3.52621L-11.1729 3.5241L-11.1643 3.52183L-11.4197 2.555ZM14.8003 2.555L15.0603 1.58938L15.0603 1.58938L14.8003 2.555ZM25.1503 7.385L25.7435 6.57994L25.7435 6.57994L25.1503 7.385ZM32.1653 15.435L31.2882 15.9153L31.2932 15.9242L32.1653 15.435ZM35.2703 26.475V27.475H36.3457L36.2677 26.4025L35.2703 26.475ZM16.0653 26.475L15.0777 26.6321L15.2118 27.475H16.0653V26.475ZM11.4653 18.655L10.8771 19.4637L10.8771 19.4637L11.4653 18.655ZM-8.54469 18.31L-7.99603 19.146L-7.99603 19.146L-8.54469 18.31ZM-10.8447 28.89L-10.0854 28.2392L-10.0854 28.2392L-10.8447 28.89ZM-6.81969 31.765L-7.25114 32.6671L-7.23491 32.6749L-7.21841 32.6821L-6.81969 31.765ZM-0.379685 33.835L-0.615291 34.8069L-0.608724 34.8084L-0.379685 33.835ZM8.59032 35.905L8.36869 36.8802L8.37545 36.8816L8.59032 35.905ZM19.6303 39.01L19.3018 39.9545L19.314 39.9587L19.3263 39.9627L19.6303 39.01ZM29.0603 43.725L28.4639 44.5278L28.4748 44.5357L29.0603 43.725ZM35.6153 51.2L34.7348 51.6741L34.7395 51.6828L34.7443 51.6913L35.6153 51.2ZM35.5003 74.315L36.3866 74.7783L36.3908 74.7701L35.5003 74.315ZM28.1403 82.94L28.7403 83.74L28.7434 83.7377L28.1403 82.94ZM17.2153 88.23L16.936 87.2698L16.9312 87.2712L17.2153 88.23ZM3.64531 89.07C-2.03051 89.07 -7.11156 88.4266 -11.6071 87.1529L-12.1523 89.0771C-7.44781 90.4101 -2.17887 91.07 3.64531 91.07V89.07ZM-11.6071 87.1529C-16.1089 85.8773 -19.9431 84.0477 -23.1277 81.6778L-24.3217 83.2822C-20.913 85.819 -16.8504 87.746 -12.1523 89.0771L-11.6071 87.1529ZM-23.1277 81.6778C-26.3031 79.3147 -28.7701 76.4045 -30.5391 72.9402L-32.3203 73.8498C-30.4093 77.5922 -27.7396 80.7387 -24.3217 83.2822L-23.1277 81.6778ZM-30.5279 72.9629C-32.2242 69.4227 -33.1559 65.4211 -33.3052 60.9417L-35.3041 61.0083C-35.1468 65.7289 -34.1618 70.0073 -32.3315 73.8271L-30.5279 72.9629ZM-34.3047 61.975H-14.5247V59.975H-34.3047V61.975ZM-15.5182 61.089C-14.9589 65.9627 -13.0972 69.6679 -9.81789 72.0223L-8.65148 70.3977C-11.3522 68.4587 -13.0171 65.3406 -13.5312 60.861L-15.5182 61.089ZM-9.80815 72.0292C-6.5109 74.3373 -1.98741 75.43 3.64531 75.43V73.43C-1.76196 73.43 -5.82513 72.376 -8.66122 70.3908L-9.80815 72.0292ZM3.64531 75.43C5.629 75.43 7.54044 75.2316 9.37775 74.8322L8.95289 72.8778C7.26352 73.2451 5.49497 73.43 3.64531 73.43V75.43ZM9.37775 74.8322C11.2233 74.431 12.8892 73.8246 14.366 73.0042L13.3947 71.2558C12.1114 71.9688 10.634 72.5124 8.95289 72.8778L9.37775 74.8322ZM14.4018 72.9833C15.8984 72.0687 17.0901 70.9282 17.9483 69.555L16.2523 68.495C15.5772 69.5752 14.6222 70.5047 13.3589 71.2767L14.4018 72.9833ZM17.9399 69.5682C18.9017 68.0819 19.3653 66.3541 19.3653 64.425H17.3653C17.3653 66.0225 16.9856 67.3615 16.2607 68.4817L17.9399 69.5682ZM19.3653 64.425C19.3653 62.4131 18.8595 60.6573 17.7853 59.225L16.1853 60.425C16.9511 61.4461 17.3653 62.7569 17.3653 64.425H19.3653ZM17.8094 59.2585C16.8479 57.86 15.4359 56.7248 13.6375 55.8256L12.7431 57.6144C14.318 58.4019 15.4361 59.3367 16.1613 60.3915L17.8094 59.2585ZM13.6375 55.8256C11.8678 54.9407 9.72464 54.1903 7.22285 53.5649L6.73778 55.5051C9.14265 56.1064 11.1395 56.8126 12.7431 57.6144L13.6375 55.8256ZM7.25106 53.5723C4.77741 52.8766 1.9999 52.1824 -1.08017 51.4894L-1.5192 53.4406C1.53406 54.1276 4.27656 54.8134 6.70957 55.4976L7.25106 53.5723ZM-1.08276 51.4888C-5.19802 50.5743 -9.0807 49.5464 -12.7314 48.4055L-13.328 50.3145C-9.61867 51.4736 -5.68135 52.5157 -1.51662 53.4412L-1.08276 51.4888ZM-12.7314 48.4055C-16.3349 47.2794 -19.4658 45.8224 -22.135 44.0429L-23.2444 45.707C-20.3936 47.6076 -17.0845 49.1406 -13.328 50.3145L-12.7314 48.4055ZM-22.1193 44.0536C-24.7601 42.2198 -26.8412 39.9538 -28.375 37.2514L-30.1144 38.2386C-28.4282 41.2096 -26.1393 43.6969 -23.2601 45.6964L-22.1193 44.0536ZM-28.3598 37.2793C-29.7957 34.551 -30.5447 31.0437 -30.5447 26.705H-32.5447C-32.5447 31.2596 -31.7603 35.1124 -30.1296 38.2107L-28.3598 37.2793ZM-30.5447 26.705C-30.5447 22.3843 -29.7256 18.7173 -28.1289 15.669L-29.9005 14.741C-31.6771 18.1327 -32.5447 22.1323 -32.5447 26.705H-30.5447ZM-28.1289 15.669C-26.5173 12.5923 -24.2876 10.0702 -21.4305 8.09219L-22.5689 6.44781C-25.6918 8.6098 -28.1388 11.3777 -29.9005 14.741L-28.1289 15.669ZM-21.4165 8.08232C-18.5435 6.01965 -15.1375 4.49657 -11.1815 3.52621L-11.6579 1.58379C-15.8285 2.60676 -19.4759 4.22701 -22.5829 6.45767L-21.4165 8.08232ZM-11.1643 3.52183C-7.19437 2.47317 -2.87288 1.945 1.80531 1.945V-0.0550033C-3.02316 -0.0550033 -7.51834 0.490153 -11.6751 1.58816L-11.1643 3.52183ZM1.80531 1.945C6.4056 1.945 10.6488 2.47289 14.5403 3.52061L15.0603 1.58938C10.9785 0.490435 6.55836 -0.0550033 1.80531 -0.0550033V1.945ZM14.5403 3.52061C18.4237 4.56612 21.757 6.1268 24.5571 8.19005L25.7435 6.57994C22.717 4.34986 19.1503 2.69054 15.0603 1.58938L14.5403 3.52061ZM24.5571 8.19005C27.3516 10.2491 29.5937 12.821 31.2882 15.9153L33.0424 14.9547C31.2102 11.609 28.7757 8.81419 25.7435 6.57994L24.5571 8.19005ZM31.2932 15.9242C32.9733 18.9192 33.9751 22.4521 34.273 26.5475L36.2677 26.4025C35.9522 22.0645 34.884 18.2374 33.0375 14.9457L31.2932 15.9242ZM35.2703 25.475H16.0653V27.475H35.2703V25.475ZM17.0529 26.3179C16.4788 22.7095 14.8184 19.8571 12.0535 17.8463L10.8771 19.4637C13.1723 21.1329 14.5785 23.4939 15.0777 26.6321L17.0529 26.3179ZM12.0535 17.8463C9.29929 15.8432 5.65791 14.895 1.23031 14.895V16.895C5.38939 16.895 8.57133 17.7868 10.8771 19.4637L12.0535 17.8463ZM1.23031 14.895C-2.95557 14.895 -6.42551 15.7232 -9.09334 17.474L-7.99603 19.146C-5.75719 17.6768 -2.71047 16.895 1.23031 16.895V14.895ZM-9.09334 17.474C-11.7971 19.2483 -13.2247 21.694 -13.2247 24.75H-11.2247C-11.2247 22.4393 -10.1989 20.5917 -7.99603 19.146L-9.09334 17.474ZM-13.2247 24.75C-13.2247 26.6271 -12.7081 28.2526 -11.6039 29.5408L-10.0854 28.2392C-10.8213 27.3807 -11.2247 26.2463 -11.2247 24.75H-13.2247ZM-11.6039 29.5408C-10.5657 30.752 -9.09505 31.7853 -7.25114 32.6671L-6.38823 30.8629C-8.07099 30.0581 -9.28365 29.1746 -10.0854 28.2392L-11.6039 29.5408ZM-7.21841 32.6821C-5.38764 33.4781 -3.18298 34.1844 -0.615285 34.8068L-0.144085 32.8631C-2.63639 32.259 -4.72506 31.5853 -6.42096 30.8479L-7.21841 32.6821ZM-0.608724 34.8084C2.001 35.4225 4.99355 36.1131 8.36869 36.8801L8.81194 34.9299C5.44041 34.1636 2.45296 33.4742 -0.150646 32.8616L-0.608724 34.8084ZM8.37545 36.8816C12.1722 37.7169 15.8142 38.7414 19.3018 39.9545L19.9588 38.0655C16.3931 36.8252 12.675 35.7797 8.80518 34.9284L8.37545 36.8816ZM19.3263 39.9627C22.8382 41.0835 25.88 42.6082 28.464 44.5277L29.6566 42.9223C26.874 40.8552 23.6291 39.2365 19.9344 38.0573L19.3263 39.9627ZM28.4748 44.5357C31.1127 46.4408 33.1967 48.8175 34.7348 51.6741L36.4958 50.7259C34.814 47.6025 32.528 44.9959 29.6458 42.9143L28.4748 44.5357ZM34.7443 51.6913C36.3237 54.4912 37.1453 58.0658 37.1453 62.47H39.1453C39.1453 57.8275 38.2802 53.8888 36.4863 50.7087L34.7443 51.6913ZM37.1453 62.47C37.1453 66.7819 36.2912 70.5703 34.6099 73.8599L36.3908 74.7701C38.2361 71.1597 39.1453 67.0514 39.1453 62.47H37.1453ZM34.6141 73.8517C32.9217 77.0894 30.5669 79.8516 27.5372 82.1423L28.7434 83.7377C32.0004 81.2751 34.5523 78.2873 36.3865 74.7783L34.6141 73.8517ZM27.5403 82.14C24.583 84.358 21.0536 86.0719 16.936 87.2698L17.4946 89.1902C21.8103 87.9347 25.5643 86.122 28.7403 83.74L27.5403 82.14ZM16.9312 87.2712C12.895 88.4671 8.46867 89.07 3.64531 89.07V91.07C8.6353 91.07 13.2556 90.4462 17.4994 89.1888L16.9312 87.2712ZM72.5052 2.44V1.44H71.8025L71.5643 2.1011L72.5052 2.44ZM92.8602 2.44L93.8006 2.09998L93.562 1.44H92.8602V2.44ZM123.795 88V89H125.22L124.736 87.66L123.795 88ZM103.095 88L102.146 88.3142L102.373 89H103.095V88ZM97.6902 71.67L98.6395 71.3558L98.4125 70.67H97.6902V71.67ZM66.6402 71.67V70.67H65.9129L65.6888 71.3618L66.6402 71.67ZM61.3502 88V89H62.0774L62.3015 88.3082L61.3502 88ZM41.6852 88L40.7443 87.6611L40.262 89H41.6852V88ZM71.2402 57.64L70.2908 57.3258L69.8559 58.64H71.2402V57.64ZM93.2052 57.64V58.64H94.58L94.1565 57.332L93.2052 57.64ZM88.0302 41.655L87.0766 41.9561L87.0788 41.963L88.0302 41.655ZM85.6152 33.26L84.645 33.5025L84.6467 33.509L85.6152 33.26ZM83.8902 25.9L82.9119 26.1075L82.9124 26.1095L83.8902 25.9ZM82.5102 18.885L83.4946 18.7092L83.3474 17.885H82.5102V18.885ZM82.2802 18.885V17.885H81.4733L81.3027 18.6737L82.2802 18.885ZM80.4402 27.165L81.4064 27.4227L81.411 27.4053L81.415 27.3878L80.4402 27.165ZM78.4852 34.64L77.5167 34.391L77.5141 34.4009L77.5117 34.411L78.4852 34.64ZM76.5302 41.655L75.5815 41.3388L75.5808 41.3408L76.5302 41.655ZM72.5052 3.44H92.8602V1.44H72.5052V3.44ZM91.9197 2.78002L122.855 88.34L124.736 87.66L93.8006 2.09998L91.9197 2.78002ZM123.795 87H103.095V89H123.795V87ZM104.045 87.6858L98.6395 71.3558L96.7408 71.9842L102.146 88.3142L104.045 87.6858ZM97.6902 70.67H66.6402V72.67H97.6902V70.67ZM65.6888 71.3618L60.3988 87.6918L62.3015 88.3082L67.5915 71.9782L65.6888 71.3618ZM61.3502 87H41.6852V89H61.3502V87ZM42.626 88.3389L73.446 2.7789L71.5643 2.1011L40.7443 87.6611L42.626 88.3389ZM71.2402 58.64H93.2052V56.64H71.2402V58.64ZM94.1565 57.332L88.9815 41.347L87.0788 41.963L92.2538 57.948L94.1565 57.332ZM88.9837 41.3539C88.0686 38.456 87.2687 35.6751 86.5837 33.011L84.6467 33.509C85.3416 36.2115 86.1517 39.0273 87.0766 41.9561L88.9837 41.3539ZM86.5853 33.0175C85.8973 30.2654 85.325 27.8234 84.868 25.6905L82.9124 26.1095C83.3753 28.2699 83.953 30.7346 84.645 33.5025L86.5853 33.0175ZM84.8684 25.6925C84.3336 23.1712 83.8757 20.8435 83.4946 18.7092L81.5257 19.0608C81.9113 21.2198 82.3734 23.5688 82.9119 26.1075L84.8684 25.6925ZM82.5102 17.885H82.2802V19.885H82.5102V17.885ZM81.3027 18.6737C80.6902 21.5067 80.0777 24.2629 79.4653 26.9422L81.415 27.3878C82.0293 24.7005 82.6435 21.9366 83.2576 19.0963L81.3027 18.6737ZM79.4739 26.9073C78.8597 29.2106 78.2073 31.7052 77.5167 34.391L79.4537 34.889C80.143 32.2081 80.7939 29.7194 81.4064 27.4227L79.4739 26.9073ZM77.5117 34.411C76.9038 36.9945 76.2601 39.303 75.5815 41.3388L77.4788 41.9712C78.1803 39.867 78.8398 37.4988 79.4586 34.869L77.5117 34.411ZM75.5808 41.3408L70.2908 57.3258L72.1895 57.9542L77.4795 41.9692L75.5808 41.3408ZM132.458 2.44V1.44H131.458V2.44H132.458ZM152.468 2.44L153.323 1.92123L153.031 1.44H152.468V2.44ZM175.008 39.585L175.871 39.0793L175.867 39.0727L175.863 39.0662L175.008 39.585ZM178.918 46.83L178.023 47.2772L178.031 47.2932L178.04 47.3089L178.918 46.83ZM182.713 54.075L181.818 54.5222L181.818 54.5222L182.713 54.075ZM186.738 62.125L185.843 62.5722L186.12 63.125H186.738V62.125ZM186.968 62.125V63.125H188.05L187.965 62.0463L186.968 62.125ZM186.393 53.27L187.392 53.2188L187.391 53.2095L186.393 53.27ZM186.048 45.105L187.048 45.0787L187.048 45.0787L186.048 45.105ZM185.933 2.44V1.44H184.933V2.44H185.933ZM204.678 2.44H205.678V1.44H204.678V2.44ZM204.678 88V89H205.678V88H204.678ZM184.553 88L183.698 88.5196L183.991 89H184.553V88ZM162.243 51.315L161.388 51.834L161.388 51.8346L162.243 51.315ZM158.218 44.07L157.329 44.5273L157.329 44.5273L158.218 44.07ZM154.423 36.595L155.317 36.1478L155.312 36.1376L154.423 36.595ZM150.398 28.43L151.302 28.003L151.032 27.43H150.398V28.43ZM150.168 28.43V27.43H149.115L149.169 28.4812L150.168 28.43ZM150.628 37.4L149.629 37.4512L149.63 37.4605L150.628 37.4ZM150.973 45.565L149.973 45.5913L149.974 45.6044L149.974 45.6176L150.973 45.565ZM151.203 88V89H152.203V88H151.203ZM132.458 88H131.458V89H132.458V88ZM132.458 3.44H152.468V1.44H132.458V3.44ZM151.613 2.95877L174.153 40.1038L175.863 39.0662L153.323 1.92123L151.613 2.95877ZM174.145 40.0907C175.436 42.2926 176.729 44.6879 178.023 47.2772L179.812 46.3828C178.5 43.7588 177.186 41.324 175.871 39.0793L174.145 40.0907ZM178.04 47.3089C179.415 49.8296 180.674 52.234 181.818 54.5222L183.607 53.6278C182.451 51.316 181.181 48.8904 179.796 46.3511L178.04 47.3089ZM181.818 54.5222L185.843 62.5722L187.632 61.6778L183.607 53.6278L181.818 54.5222ZM186.738 63.125H186.968V61.125H186.738V63.125ZM187.965 62.0463C187.736 59.1423 187.544 56.1998 187.392 53.2188L185.394 53.3212C185.548 56.3202 185.74 59.281 185.971 62.2037L187.965 62.0463ZM187.391 53.2095C187.239 50.6924 187.124 47.9823 187.048 45.0787L185.048 45.1313C185.125 48.0544 185.241 50.7876 185.395 53.3305L187.391 53.2095ZM187.048 45.0787C186.971 42.1726 186.933 39.4981 186.933 37.055H184.933C184.933 39.5185 184.971 42.2108 185.048 45.1313L187.048 45.0787ZM186.933 37.055V2.44H184.933V37.055H186.933ZM185.933 3.44H204.678V1.44H185.933V3.44ZM203.678 2.44V88H205.678V2.44H203.678ZM204.678 87H184.553V89H204.678V87ZM185.407 87.4804L163.097 50.7954L161.388 51.8346L183.698 88.5196L185.407 87.4804ZM163.098 50.796C161.809 48.673 160.478 46.2791 159.107 43.6126L157.329 44.5273C158.717 47.2276 160.07 49.6637 161.388 51.834L163.098 50.796ZM159.107 43.6126C157.729 40.9321 156.465 38.4439 155.317 36.1478L153.528 37.0422C154.68 39.3461 155.947 41.8412 157.329 44.5273L159.107 43.6126ZM155.312 36.1376C153.937 33.4645 152.601 30.7529 151.302 28.003L149.494 28.857C150.802 31.6271 152.148 34.3589 153.534 37.0523L155.312 36.1376ZM150.398 27.43H150.168V29.43H150.398V27.43ZM149.169 28.4812C149.323 31.4712 149.476 34.4612 149.629 37.4512L151.627 37.3488C151.473 34.3588 151.32 31.3688 151.167 28.3788L149.169 28.4812ZM149.63 37.4605C149.782 39.9776 149.897 42.6877 149.973 45.5913L151.973 45.5387C151.896 42.6156 151.78 39.8824 151.626 37.3395L149.63 37.4605ZM149.974 45.6176C150.127 48.5165 150.203 51.1821 150.203 53.615H152.203C152.203 51.1412 152.126 48.4401 151.972 45.5124L149.974 45.6176ZM150.203 53.615V88H152.203V53.615H150.203ZM151.203 87H132.458V89H151.203V87ZM133.458 88V2.44H131.458V88H133.458ZM214.905 2.44V1.44H213.905V2.44H214.905ZM285.515 2.44H286.515V1.44H285.515V2.44ZM285.515 19.115V20.115H286.515V19.115H285.515ZM259.985 19.115V18.115H258.985V19.115H259.985ZM259.985 88V89H260.985V88H259.985ZM240.32 88H239.32V89H240.32V88ZM240.32 19.115H241.32V18.115H240.32V19.115ZM214.905 19.115H213.905V20.115H214.905V19.115ZM214.905 3.44H285.515V1.44H214.905V3.44ZM284.515 2.44V19.115H286.515V2.44H284.515ZM285.515 18.115H259.985V20.115H285.515V18.115ZM258.985 19.115V88H260.985V19.115H258.985ZM259.985 87H240.32V89H259.985V87ZM241.32 88V19.115H239.32V88H241.32ZM240.32 18.115H214.905V20.115H240.32V18.115ZM215.905 19.115V2.44H213.905V19.115H215.905ZM313.54 86.735L313.147 87.6548L313.147 87.6548L313.54 86.735ZM300.2 77.42L300.935 76.7417L300.935 76.7417L300.2 77.42ZM291.69 63.275L290.746 63.6072L290.751 63.6189L291.69 63.275ZM291.69 27.74L290.751 27.3961L290.747 27.4079L291.69 27.74ZM300.2 13.71L300.928 14.3954L300.935 14.3883L300.2 13.71ZM313.54 4.39499L313.932 5.31491L313.943 5.30991L313.54 4.39499ZM348.615 4.39499L348.211 5.30998L348.222 5.31484L348.615 4.39499ZM361.955 13.71L361.22 14.3883L361.227 14.3954L361.955 13.71ZM370.35 27.74L369.406 28.0721L369.411 28.0839L370.35 27.74ZM370.35 63.275L369.411 62.9311L369.407 62.9429L370.35 63.275ZM361.955 77.42L362.69 78.0983L362.69 78.0983L361.955 77.42ZM348.615 86.735L349.007 87.6548L349.007 87.6548L348.615 86.735ZM340.91 71.785L340.443 70.9006L340.443 70.9006L340.91 71.785ZM347.81 65.805L348.619 66.3932L348.619 66.3932L347.81 65.805ZM351.95 56.835L350.984 56.5773L350.984 56.5773L351.95 56.835ZM351.95 34.295L350.982 34.5474L350.984 34.5527L351.95 34.295ZM347.81 25.095L348.627 24.5183L348.627 24.5183L347.81 25.095ZM340.91 19L340.443 19.8844L340.443 19.8844L340.91 19ZM321.475 19L321.018 18.1104L321.008 18.1156L321.475 19ZM314.46 25.095L313.654 24.5026L313.648 24.5104L313.643 24.5183L314.46 25.095ZM310.205 34.295L309.242 34.023L309.24 34.0302L309.239 34.0373L310.205 34.295ZM310.205 56.835L309.239 57.0927L309.241 57.1026L309.244 57.1125L310.205 56.835ZM314.46 65.805L313.651 66.3932L313.657 66.4011L313.663 66.4089L314.46 65.805ZM321.475 71.785L321.008 72.6694L321.018 72.6746L321.475 71.785ZM331.135 89.07C324.733 89.07 319.004 87.9783 313.932 85.8152L313.147 87.6548C318.502 89.9384 324.503 91.07 331.135 91.07V89.07ZM313.932 85.8152C308.843 83.6447 304.514 80.6199 300.935 76.7417L299.465 78.0983C303.245 82.1934 307.81 85.3786 313.147 87.6548L313.932 85.8152ZM300.935 76.7417C297.35 72.8585 294.58 68.2592 292.629 62.9311L290.751 63.6189C292.786 69.1775 295.69 74.0082 299.465 78.0983L300.935 76.7417ZM292.633 62.9429C290.758 57.6166 289.815 51.8268 289.815 45.565H287.815C287.815 52.0299 288.789 58.0467 290.747 63.6071L292.633 62.9429ZM289.815 45.565C289.815 39.2251 290.758 33.3971 292.633 28.0721L290.747 27.4079C288.788 32.9695 287.815 39.0249 287.815 45.565H289.815ZM292.629 28.0839C294.579 22.7572 297.348 18.1993 300.928 14.3954L299.472 13.0246C295.692 17.0407 292.787 21.8361 290.751 27.3961L292.629 28.0839ZM300.935 14.3883C304.514 10.5101 308.843 7.48528 313.932 5.31484L313.147 3.47515C307.81 5.75138 303.245 8.9366 299.465 13.0317L300.935 14.3883ZM313.943 5.30991C319.013 3.07353 324.737 1.945 331.135 1.945V-0.0550033C324.499 -0.0550033 318.494 1.11646 313.136 3.48008L313.943 5.30991ZM331.135 1.945C337.454 1.945 343.141 3.07289 348.211 5.30991L349.018 3.48008C343.662 1.1171 337.696 -0.0550033 331.135 -0.0550033V1.945ZM348.222 5.31484C353.312 7.48528 357.64 10.5101 361.22 14.3883L362.69 13.0317C358.909 8.9366 354.344 5.75138 349.007 3.47515L348.222 5.31484ZM361.227 14.3954C364.804 18.1965 367.533 22.7503 369.407 28.0721L371.293 27.4079C369.334 21.8431 366.465 17.0435 362.683 13.0246L361.227 14.3954ZM369.411 28.0839C371.36 33.4055 372.34 39.2294 372.34 45.565H374.34C374.34 39.0206 373.327 32.9612 371.289 27.3961L369.411 28.0839ZM372.34 45.565C372.34 51.8225 371.36 57.6082 369.411 62.9311L371.289 63.6189C373.326 58.0551 374.34 52.0342 374.34 45.565H372.34ZM369.407 62.9429C367.532 68.2661 364.802 72.8613 361.22 76.7417L362.69 78.0983C366.468 74.0053 369.334 69.1705 371.293 63.6071L369.407 62.9429ZM361.22 76.7417C357.64 80.6199 353.312 83.6447 348.222 85.8152L349.007 87.6548C354.344 85.3786 358.909 82.1934 362.69 78.0983L361.22 76.7417ZM348.222 85.8152C343.149 87.9789 337.458 89.07 331.135 89.07V91.07C337.691 91.07 343.654 89.9378 349.007 87.6548L348.222 85.8152ZM331.25 74.97C335.063 74.97 338.449 74.2145 341.377 72.6694L340.443 70.9006C337.851 72.2688 334.796 72.97 331.25 72.97V74.97ZM341.377 72.6694C344.272 71.1412 346.689 69.0464 348.619 66.3932L347.001 65.2168C345.251 67.6236 343.068 69.5154 340.443 70.9006L341.377 72.6694ZM348.619 66.3932C350.54 63.7506 351.969 60.6449 352.916 57.0927L350.984 56.5773C350.091 59.9251 348.759 62.7994 347.001 65.2168L348.619 66.3932ZM352.916 57.0927C353.861 53.548 354.33 49.7036 354.33 45.565H352.33C352.33 49.5531 351.878 53.222 350.984 56.5773L352.916 57.0927ZM354.33 45.565C354.33 41.4264 353.861 37.582 352.916 34.0373L350.984 34.5527C351.878 37.908 352.33 41.5769 352.33 45.565H354.33ZM352.917 34.0426C351.971 30.416 350.545 27.2361 348.627 24.5183L346.993 25.6717C348.754 28.1673 350.088 31.1207 350.982 34.5474L352.917 34.0426ZM348.627 24.5183C346.698 21.7859 344.279 19.6475 341.377 18.1156L340.443 19.8844C343.06 21.2658 345.242 23.1907 346.993 25.6717L348.627 24.5183ZM341.377 18.1156C338.449 16.5705 335.063 15.815 331.25 15.815V17.815C334.796 17.815 337.851 18.5162 340.443 19.8844L341.377 18.1156ZM331.25 15.815C327.435 15.815 324.016 16.5707 321.018 18.1104L321.932 19.8896C324.607 18.5159 327.704 17.815 331.25 17.815V15.815ZM321.008 18.1156C318.109 19.6454 315.657 21.7789 313.654 24.5026L315.265 25.6874C317.096 23.1978 319.32 21.2679 321.942 19.8844L321.008 18.1156ZM313.643 24.5183C311.729 27.2302 310.265 30.4032 309.242 34.023L311.167 34.567C312.137 31.1334 313.511 28.1731 315.277 25.6717L313.643 24.5183ZM309.239 34.0373C308.293 37.582 307.825 41.4264 307.825 45.565H309.825C309.825 41.5769 310.276 37.908 311.171 34.5527L309.239 34.0373ZM307.825 45.565C307.825 49.7036 308.293 53.548 309.239 57.0927L311.171 56.5773C310.276 53.222 309.825 49.5531 309.825 45.565H307.825ZM309.244 57.1125C310.268 60.6579 311.733 63.7565 313.651 66.3932L315.269 65.2168C313.506 62.7935 312.135 59.9121 311.165 56.5575L309.244 57.1125ZM313.663 66.4089C315.666 69.0533 318.116 71.1433 321.008 72.6694L321.942 70.9006C319.313 69.5134 317.087 67.6167 315.257 65.2011L313.663 66.4089ZM321.018 72.6746C324.016 74.2143 327.435 74.97 331.25 74.97V72.97C327.704 72.97 324.607 72.2691 321.932 70.8954L321.018 72.6746Z" fill="#F4F4F4"/>
</svg>
