<svg width="409" height="91" viewBox="0 0 409 91" fill="none" xmlns="http://www.w3.org/2000/svg">
<path d="M23.1203 88.115L23.3929 87.1529L23.3929 87.1529L23.1203 88.115ZM11.2753 82.48L10.6783 83.2822L10.6783 83.2822L11.2753 82.48ZM3.57031 73.395L2.6685 73.8271L2.67396 73.8385L2.67971 73.8498L3.57031 73.395ZM0.695313 60.975V59.975H-0.338576L-0.304132 61.0083L0.695313 60.975ZM20.4753 60.975L21.4688 60.861L21.3671 59.975H20.4753V60.975ZM25.7653 71.21L25.1821 72.0224L25.1919 72.0292L25.7653 71.21ZM44.1653 73.855L44.3777 74.8322L44.3777 74.8322L44.1653 73.855ZM48.8803 72.13L49.366 73.0042L49.3841 72.9941L49.4018 72.9833L48.8803 72.13ZM52.1003 69.025L51.2607 68.4817L51.2565 68.4883L51.2523 68.495L52.1003 69.025ZM51.9853 59.825L51.1613 60.3915L51.1729 60.4085L51.1853 60.425L51.9853 59.825ZM48.1903 56.72L48.6375 55.8256L48.6375 55.8256L48.1903 56.72ZM41.9803 54.535L41.7096 55.4976L41.7236 55.5016L41.7378 55.5051L41.9803 54.535ZM33.7003 52.465L33.9198 51.4894L33.9172 51.4888L33.7003 52.465ZM21.9703 49.36L22.2686 48.4055L22.2686 48.4055L21.9703 49.36ZM12.3103 44.875L11.7399 45.6964L11.7477 45.7018L11.7556 45.707L12.3103 44.875ZM5.75531 37.745L4.87039 38.2107L4.87779 38.2248L4.88563 38.2386L5.75531 37.745ZM13.0003 7.27L13.5695 8.09219L13.5766 8.08732L13.5835 8.08232L13.0003 7.27ZM23.5803 2.555L23.8185 3.52621L23.8271 3.5241L23.8357 3.52183L23.5803 2.555ZM49.8003 2.555L50.0603 1.58938L50.0603 1.58938L49.8003 2.555ZM60.1503 7.385L60.7435 6.57994L60.7435 6.57994L60.1503 7.385ZM67.1653 15.435L66.2882 15.9153L66.2932 15.9242L67.1653 15.435ZM70.2703 26.475V27.475H71.3457L71.2677 26.4025L70.2703 26.475ZM51.0653 26.475L50.0777 26.6321L50.2118 27.475H51.0653V26.475ZM46.4653 18.655L45.8771 19.4637L45.8771 19.4637L46.4653 18.655ZM26.4553 18.31L27.004 19.146L27.004 19.146L26.4553 18.31ZM24.1553 28.89L24.9146 28.2392L24.9146 28.2392L24.1553 28.89ZM28.1803 31.765L27.7489 32.6671L27.7651 32.6749L27.7816 32.6821L28.1803 31.765ZM34.6203 33.835L34.3847 34.8069L34.3913 34.8084L34.6203 33.835ZM43.5903 35.905L43.3687 36.8802L43.3755 36.8816L43.5903 35.905ZM54.6303 39.01L54.3018 39.9545L54.314 39.9587L54.3263 39.9627L54.6303 39.01ZM64.0603 43.725L63.4639 44.5278L63.4748 44.5357L64.0603 43.725ZM70.6153 51.2L69.7348 51.6741L69.7395 51.6828L69.7443 51.6913L70.6153 51.2ZM70.5003 74.315L71.3866 74.7783L71.3908 74.7701L70.5003 74.315ZM63.1403 82.94L63.7403 83.74L63.7434 83.7377L63.1403 82.94ZM52.2153 88.23L51.936 87.2698L51.9312 87.2712L52.2153 88.23ZM38.6453 89.07C32.9695 89.07 27.8884 88.4266 23.3929 87.1529L22.8477 89.0771C27.5522 90.4101 32.8211 91.07 38.6453 91.07V89.07ZM23.3929 87.1529C18.8911 85.8773 15.0569 84.0477 11.8723 81.6778L10.6783 83.2822C14.087 85.819 18.1496 87.746 22.8477 89.0771L23.3929 87.1529ZM11.8723 81.6778C8.69691 79.3147 6.22992 76.4045 4.46092 72.9402L2.67971 73.8498C4.59071 77.5922 7.26038 80.7387 10.6783 83.2822L11.8723 81.6778ZM4.47213 72.9629C2.77577 69.4227 1.84407 65.4211 1.69476 60.9417L-0.304132 61.0083C-0.14678 65.7289 0.838188 70.0073 2.6685 73.8271L4.47213 72.9629ZM0.695313 61.975H20.4753V59.975H0.695313V61.975ZM19.4818 61.089C20.0411 65.9627 21.9028 69.6679 25.1821 72.0223L26.3485 70.3977C23.6478 68.4587 21.9829 65.3406 21.4688 60.861L19.4818 61.089ZM25.1919 72.0292C28.4891 74.3373 33.0126 75.43 38.6453 75.43V73.43C33.238 73.43 29.1749 72.376 26.3388 70.3908L25.1919 72.0292ZM38.6453 75.43C40.629 75.43 42.5404 75.2316 44.3777 74.8322L43.9529 72.8778C42.2635 73.2451 40.495 73.43 38.6453 73.43V75.43ZM44.3777 74.8322C46.2233 74.431 47.8892 73.8246 49.366 73.0042L48.3947 71.2558C47.1114 71.9688 45.634 72.5124 43.9529 72.8778L44.3777 74.8322ZM49.4018 72.9833C50.8984 72.0687 52.0901 70.9282 52.9483 69.555L51.2523 68.495C50.5772 69.5752 49.6222 70.5047 48.3589 71.2767L49.4018 72.9833ZM52.9399 69.5682C53.9017 68.0819 54.3653 66.3541 54.3653 64.425H52.3653C52.3653 66.0225 51.9856 67.3615 51.2607 68.4817L52.9399 69.5682ZM54.3653 64.425C54.3653 62.4131 53.8595 60.6573 52.7853 59.225L51.1853 60.425C51.9511 61.4461 52.3653 62.7569 52.3653 64.425H54.3653ZM52.8094 59.2585C51.8479 57.86 50.4359 56.7248 48.6375 55.8256L47.7431 57.6144C49.318 58.4019 50.4361 59.3367 51.1613 60.3915L52.8094 59.2585ZM48.6375 55.8256C46.8678 54.9407 44.7246 54.1903 42.2228 53.5649L41.7378 55.5051C44.1426 56.1064 46.1395 56.8126 47.7431 57.6144L48.6375 55.8256ZM42.2511 53.5723C39.7774 52.8766 36.9999 52.1824 33.9198 51.4894L33.4808 53.4406C36.5341 54.1276 39.2766 54.8134 41.7096 55.4976L42.2511 53.5723ZM33.9172 51.4888C29.802 50.5743 25.9193 49.5464 22.2686 48.4055L21.672 50.3145C25.3813 51.4736 29.3187 52.5157 33.4834 53.4412L33.9172 51.4888ZM22.2686 48.4055C18.6651 47.2794 15.5342 45.8224 12.865 44.0429L11.7556 45.707C14.6064 47.6076 17.9155 49.1406 21.672 50.3145L22.2686 48.4055ZM12.8807 44.0536C10.2399 42.2198 8.15878 39.9538 6.625 37.2514L4.88563 38.2386C6.57185 41.2096 8.86069 43.6969 11.7399 45.6964L12.8807 44.0536ZM6.64023 37.2793C5.20429 34.551 4.45531 31.0437 4.45531 26.705H2.45531C2.45531 31.2596 3.23967 35.1124 4.87039 38.2107L6.64023 37.2793ZM4.45531 26.705C4.45531 22.3843 5.27442 18.7173 6.87114 15.669L5.09948 14.741C3.32287 18.1327 2.45531 22.1323 2.45531 26.705H4.45531ZM6.87114 15.669C8.48275 12.5923 10.7124 10.0702 13.5695 8.09219L12.4311 6.44781C9.30822 8.6098 6.86121 11.3777 5.09948 14.741L6.87114 15.669ZM13.5835 8.08232C16.4565 6.01965 19.8625 4.49657 23.8185 3.52621L23.3421 1.58379C19.1715 2.60676 15.5241 4.22701 12.4171 6.45767L13.5835 8.08232ZM23.8357 3.52183C27.8056 2.47317 32.1271 1.945 36.8053 1.945V-0.0550033C31.9768 -0.0550033 27.4817 0.490153 23.3249 1.58816L23.8357 3.52183ZM36.8053 1.945C41.4056 1.945 45.6488 2.47289 49.5403 3.52061L50.0603 1.58938C45.9785 0.490435 41.5584 -0.0550033 36.8053 -0.0550033V1.945ZM49.5403 3.52061C53.4237 4.56612 56.757 6.1268 59.5571 8.19005L60.7435 6.57994C57.717 4.34986 54.1503 2.69054 50.0603 1.58938L49.5403 3.52061ZM59.5571 8.19005C62.3516 10.2491 64.5937 12.821 66.2882 15.9153L68.0424 14.9547C66.2102 11.609 63.7757 8.81419 60.7435 6.57994L59.5571 8.19005ZM66.2932 15.9242C67.9733 18.9192 68.9751 22.4521 69.273 26.5475L71.2677 26.4025C70.9522 22.0645 69.884 18.2374 68.0375 14.9457L66.2932 15.9242ZM70.2703 25.475H51.0653V27.475H70.2703V25.475ZM52.0529 26.3179C51.4788 22.7095 49.8184 19.8571 47.0535 17.8463L45.8771 19.4637C48.1723 21.1329 49.5785 23.4939 50.0777 26.6321L52.0529 26.3179ZM47.0535 17.8463C44.2993 15.8432 40.6579 14.895 36.2303 14.895V16.895C40.3894 16.895 43.5713 17.7868 45.8771 19.4637L47.0535 17.8463ZM36.2303 14.895C32.0444 14.895 28.5745 15.7232 25.9067 17.474L27.004 19.146C29.2428 17.6768 32.2895 16.895 36.2303 16.895V14.895ZM25.9067 17.474C23.2029 19.2483 21.7753 21.694 21.7753 24.75H23.7753C23.7753 22.4393 24.8011 20.5917 27.004 19.146L25.9067 17.474ZM21.7753 24.75C21.7753 26.6271 22.2919 28.2526 23.3961 29.5408L24.9146 28.2392C24.1787 27.3807 23.7753 26.2463 23.7753 24.75H21.7753ZM23.3961 29.5408C24.4343 30.752 25.905 31.7853 27.7489 32.6671L28.6118 30.8629C26.929 30.0581 25.7164 29.1746 24.9146 28.2392L23.3961 29.5408ZM27.7816 32.6821C29.6124 33.4781 31.817 34.1844 34.3847 34.8068L34.8559 32.8631C32.3636 32.259 30.2749 31.5853 28.579 30.8479L27.7816 32.6821ZM34.3913 34.8084C37.001 35.4225 39.9936 36.1131 43.3687 36.8801L43.8119 34.9299C40.4404 34.1636 37.453 33.4742 34.8494 32.8616L34.3913 34.8084ZM43.3755 36.8816C47.1722 37.7169 50.8142 38.7414 54.3018 39.9545L54.9588 38.0655C51.3931 36.8252 47.675 35.7797 43.8052 34.9284L43.3755 36.8816ZM54.3263 39.9627C57.8382 41.0835 60.88 42.6082 63.464 44.5277L64.6566 42.9223C61.874 40.8552 58.6291 39.2365 54.9344 38.0573L54.3263 39.9627ZM63.4748 44.5357C66.1127 46.4408 68.1967 48.8175 69.7348 51.6741L71.4958 50.7259C69.814 47.6025 67.528 44.9959 64.6458 42.9143L63.4748 44.5357ZM69.7443 51.6913C71.3237 54.4912 72.1453 58.0658 72.1453 62.47H74.1453C74.1453 57.8275 73.2802 53.8888 71.4863 50.7087L69.7443 51.6913ZM72.1453 62.47C72.1453 66.7819 71.2912 70.5703 69.6099 73.8599L71.3908 74.7701C73.2361 71.1597 74.1453 67.0514 74.1453 62.47H72.1453ZM69.6141 73.8517C67.9217 77.0894 65.5669 79.8516 62.5372 82.1423L63.7434 83.7377C67.0004 81.2751 69.5523 78.2873 71.3865 74.7783L69.6141 73.8517ZM62.5403 82.14C59.583 84.358 56.0536 86.0719 51.936 87.2698L52.4946 89.1902C56.8103 87.9347 60.5643 86.122 63.7403 83.74L62.5403 82.14ZM51.9312 87.2712C47.895 88.4671 43.4687 89.07 38.6453 89.07V91.07C43.6353 91.07 48.2556 90.4462 52.4994 89.1888L51.9312 87.2712ZM107.505 2.44V1.44H106.802L106.564 2.1011L107.505 2.44ZM127.86 2.44L128.801 2.09998L128.562 1.44H127.86V2.44ZM158.795 88V89H160.22L159.736 87.66L158.795 88ZM138.095 88L137.146 88.3142L137.373 89H138.095V88ZM132.69 71.67L133.64 71.3558L133.413 70.67H132.69V71.67ZM101.64 71.67V70.67H100.913L100.689 71.3618L101.64 71.67ZM96.3502 88V89H97.0774L97.3015 88.3082L96.3502 88ZM76.6852 88L75.7443 87.6611L75.262 89H76.6852V88ZM106.24 57.64L105.291 57.3258L104.856 58.64H106.24V57.64ZM128.205 57.64V58.64H129.58L129.157 57.332L128.205 57.64ZM123.03 41.655L122.077 41.9561L122.079 41.963L123.03 41.655ZM120.615 33.26L119.645 33.5025L119.647 33.509L120.615 33.26ZM118.89 25.9L117.912 26.1075L117.912 26.1095L118.89 25.9ZM117.51 18.885L118.495 18.7092L118.347 17.885H117.51V18.885ZM117.28 18.885V17.885H116.473L116.303 18.6737L117.28 18.885ZM115.44 27.165L116.406 27.4227L116.411 27.4053L116.415 27.3878L115.44 27.165ZM113.485 34.64L112.517 34.391L112.514 34.4009L112.512 34.411L113.485 34.64ZM111.53 41.655L110.581 41.3388L110.581 41.3408L111.53 41.655ZM107.505 3.44H127.86V1.44H107.505V3.44ZM126.92 2.78002L157.855 88.34L159.736 87.66L128.801 2.09998L126.92 2.78002ZM158.795 87H138.095V89H158.795V87ZM139.045 87.6858L133.64 71.3558L131.741 71.9842L137.146 88.3142L139.045 87.6858ZM132.69 70.67H101.64V72.67H132.69V70.67ZM100.689 71.3618L95.3988 87.6918L97.3015 88.3082L102.591 71.9782L100.689 71.3618ZM96.3502 87H76.6852V89H96.3502V87ZM77.626 88.3389L108.446 2.7789L106.564 2.1011L75.7443 87.6611L77.626 88.3389ZM106.24 58.64H128.205V56.64H106.24V58.64ZM129.157 57.332L123.982 41.347L122.079 41.963L127.254 57.948L129.157 57.332ZM123.984 41.3539C123.069 38.456 122.269 35.6751 121.584 33.011L119.647 33.509C120.342 36.2115 121.152 39.0273 122.077 41.9561L123.984 41.3539ZM121.585 33.0175C120.897 30.2654 120.325 27.8234 119.868 25.6905L117.912 26.1095C118.375 28.2699 118.953 30.7346 119.645 33.5025L121.585 33.0175ZM119.868 25.6925C119.334 23.1712 118.876 20.8435 118.495 18.7092L116.526 19.0608C116.911 21.2198 117.373 23.5688 117.912 26.1075L119.868 25.6925ZM117.51 17.885H117.28V19.885H117.51V17.885ZM116.303 18.6737C115.69 21.5067 115.078 24.2629 114.465 26.9422L116.415 27.3878C117.029 24.7005 117.643 21.9366 118.258 19.0963L116.303 18.6737ZM114.474 26.9073C113.86 29.2106 113.207 31.7052 112.517 34.391L114.454 34.889C115.143 32.2081 115.794 29.7194 116.406 27.4227L114.474 26.9073ZM112.512 34.411C111.904 36.9945 111.26 39.303 110.581 41.3388L112.479 41.9712C113.18 39.867 113.84 37.4988 114.459 34.869L112.512 34.411ZM110.581 41.3408L105.291 57.3258L107.19 57.9542L112.48 41.9692L110.581 41.3408ZM167.458 2.44V1.44H166.458V2.44H167.458ZM187.468 2.44L188.323 1.92123L188.031 1.44H187.468V2.44ZM210.008 39.585L210.871 39.0793L210.867 39.0727L210.863 39.0662L210.008 39.585ZM213.918 46.83L213.023 47.2772L213.031 47.2932L213.04 47.3089L213.918 46.83ZM217.713 54.075L216.818 54.5222L216.818 54.5222L217.713 54.075ZM221.738 62.125L220.843 62.5722L221.12 63.125H221.738V62.125ZM221.968 62.125V63.125H223.05L222.965 62.0463L221.968 62.125ZM221.393 53.27L222.392 53.2188L222.391 53.2095L221.393 53.27ZM221.048 45.105L222.048 45.0787L222.048 45.0787L221.048 45.105ZM220.933 2.44V1.44H219.933V2.44H220.933ZM239.678 2.44H240.678V1.44H239.678V2.44ZM239.678 88V89H240.678V88H239.678ZM219.553 88L218.698 88.5196L218.991 89H219.553V88ZM197.243 51.315L196.388 51.834L196.388 51.8346L197.243 51.315ZM193.218 44.07L192.329 44.5273L192.329 44.5273L193.218 44.07ZM189.423 36.595L190.317 36.1478L190.312 36.1376L189.423 36.595ZM185.398 28.43L186.302 28.003L186.032 27.43H185.398V28.43ZM185.168 28.43V27.43H184.115L184.169 28.4812L185.168 28.43ZM185.628 37.4L184.629 37.4512L184.63 37.4605L185.628 37.4ZM185.973 45.565L184.973 45.5913L184.974 45.6044L184.974 45.6176L185.973 45.565ZM186.203 88V89H187.203V88H186.203ZM167.458 88H166.458V89H167.458V88ZM167.458 3.44H187.468V1.44H167.458V3.44ZM186.613 2.95877L209.153 40.1038L210.863 39.0662L188.323 1.92123L186.613 2.95877ZM209.145 40.0907C210.436 42.2926 211.729 44.6879 213.023 47.2772L214.812 46.3828C213.5 43.7588 212.186 41.324 210.871 39.0793L209.145 40.0907ZM213.04 47.3089C214.415 49.8296 215.674 52.234 216.818 54.5222L218.607 53.6278C217.451 51.316 216.181 48.8904 214.796 46.3511L213.04 47.3089ZM216.818 54.5222L220.843 62.5722L222.632 61.6778L218.607 53.6278L216.818 54.5222ZM221.738 63.125H221.968V61.125H221.738V63.125ZM222.965 62.0463C222.736 59.1423 222.544 56.1998 222.392 53.2188L220.394 53.3212C220.548 56.3202 220.74 59.281 220.971 62.2037L222.965 62.0463ZM222.391 53.2095C222.239 50.6924 222.124 47.9823 222.048 45.0787L220.048 45.1313C220.125 48.0544 220.241 50.7876 220.395 53.3305L222.391 53.2095ZM222.048 45.0787C221.971 42.1726 221.933 39.4981 221.933 37.055H219.933C219.933 39.5185 219.971 42.2108 220.048 45.1313L222.048 45.0787ZM221.933 37.055V2.44H219.933V37.055H221.933ZM220.933 3.44H239.678V1.44H220.933V3.44ZM238.678 2.44V88H240.678V2.44H238.678ZM239.678 87H219.553V89H239.678V87ZM220.407 87.4804L198.097 50.7954L196.388 51.8346L218.698 88.5196L220.407 87.4804ZM198.098 50.796C196.809 48.673 195.478 46.2791 194.107 43.6126L192.329 44.5273C193.717 47.2276 195.07 49.6637 196.388 51.834L198.098 50.796ZM194.107 43.6126C192.729 40.9321 191.465 38.4439 190.317 36.1478L188.528 37.0422C189.68 39.3461 190.947 41.8412 192.329 44.5273L194.107 43.6126ZM190.312 36.1376C188.937 33.4645 187.601 30.7529 186.302 28.003L184.494 28.857C185.802 31.6271 187.148 34.3589 188.534 37.0523L190.312 36.1376ZM185.398 27.43H185.168V29.43H185.398V27.43ZM184.169 28.4812C184.323 31.4712 184.476 34.4612 184.629 37.4512L186.627 37.3488C186.473 34.3588 186.32 31.3688 186.167 28.3788L184.169 28.4812ZM184.63 37.4605C184.782 39.9776 184.897 42.6877 184.973 45.5913L186.973 45.5387C186.896 42.6156 186.78 39.8824 186.626 37.3395L184.63 37.4605ZM184.974 45.6176C185.127 48.5165 185.203 51.1821 185.203 53.615H187.203C187.203 51.1412 187.126 48.4401 186.972 45.5124L184.974 45.6176ZM185.203 53.615V88H187.203V53.615H185.203ZM186.203 87H167.458V89H186.203V87ZM168.458 88V2.44H166.458V88H168.458ZM249.905 2.44V1.44H248.905V2.44H249.905ZM320.515 2.44H321.515V1.44H320.515V2.44ZM320.515 19.115V20.115H321.515V19.115H320.515ZM294.985 19.115V18.115H293.985V19.115H294.985ZM294.985 88V89H295.985V88H294.985ZM275.32 88H274.32V89H275.32V88ZM275.32 19.115H276.32V18.115H275.32V19.115ZM249.905 19.115H248.905V20.115H249.905V19.115ZM249.905 3.44H320.515V1.44H249.905V3.44ZM319.515 2.44V19.115H321.515V2.44H319.515ZM320.515 18.115H294.985V20.115H320.515V18.115ZM293.985 19.115V88H295.985V19.115H293.985ZM294.985 87H275.32V89H294.985V87ZM276.32 88V19.115H274.32V88H276.32ZM275.32 18.115H249.905V20.115H275.32V18.115ZM250.905 19.115V2.44H248.905V19.115H250.905ZM348.54 86.735L348.147 87.6548L348.147 87.6548L348.54 86.735ZM335.2 77.42L335.935 76.7417L335.935 76.7417L335.2 77.42ZM326.69 63.275L325.746 63.6072L325.751 63.6189L326.69 63.275ZM326.69 27.74L325.751 27.3961L325.747 27.4079L326.69 27.74ZM335.2 13.71L335.928 14.3954L335.935 14.3883L335.2 13.71ZM348.54 4.39499L348.932 5.31491L348.943 5.30991L348.54 4.39499ZM383.615 4.39499L383.211 5.30998L383.222 5.31484L383.615 4.39499ZM396.955 13.71L396.22 14.3883L396.227 14.3954L396.955 13.71ZM405.35 27.74L404.406 28.0721L404.411 28.0839L405.35 27.74ZM405.35 63.275L404.411 62.9311L404.407 62.9429L405.35 63.275ZM396.955 77.42L397.69 78.0983L397.69 78.0983L396.955 77.42ZM383.615 86.735L384.007 87.6548L384.007 87.6548L383.615 86.735ZM375.91 71.785L375.443 70.9006L375.443 70.9006L375.91 71.785ZM382.81 65.805L383.619 66.3932L383.619 66.3932L382.81 65.805ZM386.95 56.835L385.984 56.5773L385.984 56.5773L386.95 56.835ZM386.95 34.295L385.982 34.5474L385.984 34.5527L386.95 34.295ZM382.81 25.095L383.627 24.5183L383.627 24.5183L382.81 25.095ZM375.91 19L375.443 19.8844L375.443 19.8844L375.91 19ZM356.475 19L356.018 18.1104L356.008 18.1156L356.475 19ZM349.46 25.095L348.654 24.5026L348.648 24.5104L348.643 24.5183L349.46 25.095ZM345.205 34.295L344.242 34.023L344.24 34.0302L344.239 34.0373L345.205 34.295ZM345.205 56.835L344.239 57.0927L344.241 57.1026L344.244 57.1125L345.205 56.835ZM349.46 65.805L348.651 66.3932L348.657 66.4011L348.663 66.4089L349.46 65.805ZM356.475 71.785L356.008 72.6694L356.018 72.6746L356.475 71.785ZM366.135 89.07C359.733 89.07 354.004 87.9783 348.932 85.8152L348.147 87.6548C353.502 89.9384 359.503 91.07 366.135 91.07V89.07ZM348.932 85.8152C343.843 83.6447 339.514 80.6199 335.935 76.7417L334.465 78.0983C338.245 82.1934 342.81 85.3786 348.147 87.6548L348.932 85.8152ZM335.935 76.7417C332.35 72.8585 329.58 68.2592 327.629 62.9311L325.751 63.6189C327.786 69.1775 330.69 74.0082 334.465 78.0983L335.935 76.7417ZM327.633 62.9429C325.758 57.6166 324.815 51.8268 324.815 45.565H322.815C322.815 52.0299 323.789 58.0467 325.747 63.6071L327.633 62.9429ZM324.815 45.565C324.815 39.2251 325.758 33.3971 327.633 28.0721L325.747 27.4079C323.788 32.9695 322.815 39.0249 322.815 45.565H324.815ZM327.629 28.0839C329.579 22.7572 332.348 18.1993 335.928 14.3954L334.472 13.0246C330.692 17.0407 327.787 21.8361 325.751 27.3961L327.629 28.0839ZM335.935 14.3883C339.514 10.5101 343.843 7.48528 348.932 5.31484L348.147 3.47515C342.81 5.75138 338.245 8.9366 334.465 13.0317L335.935 14.3883ZM348.943 5.30991C354.013 3.07353 359.737 1.945 366.135 1.945V-0.0550033C359.499 -0.0550033 353.494 1.11646 348.136 3.48008L348.943 5.30991ZM366.135 1.945C372.454 1.945 378.141 3.07289 383.211 5.30991L384.018 3.48008C378.662 1.1171 372.696 -0.0550033 366.135 -0.0550033V1.945ZM383.222 5.31484C388.312 7.48528 392.64 10.5101 396.22 14.3883L397.69 13.0317C393.909 8.9366 389.344 5.75138 384.007 3.47515L383.222 5.31484ZM396.227 14.3954C399.804 18.1965 402.533 22.7503 404.407 28.0721L406.293 27.4079C404.334 21.8431 401.465 17.0435 397.683 13.0246L396.227 14.3954ZM404.411 28.0839C406.36 33.4055 407.34 39.2294 407.34 45.565H409.34C409.34 39.0206 408.327 32.9612 406.289 27.3961L404.411 28.0839ZM407.34 45.565C407.34 51.8225 406.36 57.6082 404.411 62.9311L406.289 63.6189C408.326 58.0551 409.34 52.0342 409.34 45.565H407.34ZM404.407 62.9429C402.532 68.2661 399.802 72.8613 396.22 76.7417L397.69 78.0983C401.468 74.0053 404.334 69.1705 406.293 63.6071L404.407 62.9429ZM396.22 76.7417C392.64 80.6199 388.312 83.6447 383.222 85.8152L384.007 87.6548C389.344 85.3786 393.909 82.1934 397.69 78.0983L396.22 76.7417ZM383.222 85.8152C378.149 87.9789 372.458 89.07 366.135 89.07V91.07C372.691 91.07 378.654 89.9378 384.007 87.6548L383.222 85.8152ZM366.25 74.97C370.063 74.97 373.449 74.2145 376.377 72.6694L375.443 70.9006C372.851 72.2688 369.796 72.97 366.25 72.97V74.97ZM376.377 72.6694C379.272 71.1412 381.689 69.0464 383.619 66.3932L382.001 65.2168C380.251 67.6236 378.068 69.5154 375.443 70.9006L376.377 72.6694ZM383.619 66.3932C385.54 63.7506 386.969 60.6449 387.916 57.0927L385.984 56.5773C385.091 59.9251 383.759 62.7994 382.001 65.2168L383.619 66.3932ZM387.916 57.0927C388.861 53.548 389.33 49.7036 389.33 45.565H387.33C387.33 49.5531 386.878 53.222 385.984 56.5773L387.916 57.0927ZM389.33 45.565C389.33 41.4264 388.861 37.582 387.916 34.0373L385.984 34.5527C386.878 37.908 387.33 41.5769 387.33 45.565H389.33ZM387.917 34.0426C386.971 30.416 385.545 27.2361 383.627 24.5183L381.993 25.6717C383.754 28.1673 385.088 31.1207 385.982 34.5474L387.917 34.0426ZM383.627 24.5183C381.698 21.7859 379.279 19.6475 376.377 18.1156L375.443 19.8844C378.06 21.2658 380.242 23.1907 381.993 25.6717L383.627 24.5183ZM376.377 18.1156C373.449 16.5705 370.063 15.815 366.25 15.815V17.815C369.796 17.815 372.851 18.5162 375.443 19.8844L376.377 18.1156ZM366.25 15.815C362.435 15.815 359.016 16.5707 356.018 18.1104L356.932 19.8896C359.607 18.5159 362.704 17.815 366.25 17.815V15.815ZM356.008 18.1156C353.109 19.6454 350.657 21.7789 348.654 24.5026L350.265 25.6874C352.096 23.1978 354.32 21.2679 356.942 19.8844L356.008 18.1156ZM348.643 24.5183C346.729 27.2302 345.265 30.4032 344.242 34.023L346.167 34.567C347.137 31.1334 348.511 28.1731 350.277 25.6717L348.643 24.5183ZM344.239 34.0373C343.293 37.582 342.825 41.4264 342.825 45.565H344.825C344.825 41.5769 345.276 37.908 346.171 34.5527L344.239 34.0373ZM342.825 45.565C342.825 49.7036 343.293 53.548 344.239 57.0927L346.171 56.5773C345.276 53.222 344.825 49.5531 344.825 45.565H342.825ZM344.244 57.1125C345.268 60.6579 346.733 63.7565 348.651 66.3932L350.269 65.2168C348.506 62.7935 347.135 59.9121 346.165 56.5575L344.244 57.1125ZM348.663 66.4089C350.666 69.0533 353.116 71.1433 356.008 72.6694L356.942 70.9006C354.313 69.5134 352.087 67.6167 350.257 65.2011L348.663 66.4089ZM356.018 72.6746C359.016 74.2143 362.435 74.97 366.25 74.97V72.97C362.704 72.97 359.607 72.2691 356.932 70.8954L356.018 72.6746Z" fill="#F4F4F4"/>
</svg>
